<svg id="Layer_1" data-name="Layer 1" xmlns="http://www.w3.org/2000/svg" viewBox="0 0 500 500" width="500" height="500" class="illustration"><defs><style>.cls-1{fill:#e2e2e2;}.cls-2{fill:#24285b;}.cls-3{fill:#13183f;}.cls-4{fill:#c3c7c9;}.cls-5{fill:#f2f2f2;}</style></defs><title>Cloud Computing Network</title><rect class="cls-1" x="32.95" y="60.39" width="434.93" height="316.31" rx="17.34"></rect><path class="cls-2" d="M40.88,56.8H459.94a7.94,7.94,0,0,1,7.94,7.94V310.21a0,0,0,0,1,0,0H32.95a0,0,0,0,1,0,0V64.74A7.94,7.94,0,0,1,40.88,56.8Z"></path><circle class="cls-2" cx="250.87" cy="343.94" r="8.86"></circle><path class="cls-3" d="M256.16,351a8.85,8.85,0,0,0-11.77-11.42,8.67,8.67,0,0,0-1.73,1A8.86,8.86,0,1,1,256.16,351Z"></path><polygon class="cls-1" points="306.12 376.7 195.59 376.7 186.61 437.81 315.11 437.81 306.12 376.7"></polygon><polygon class="cls-4" points="192.38 398.58 309.34 398.58 306.12 376.7 195.59 376.7 192.38 398.58"></polygon><rect class="cls-4" x="176.72" y="436.01" width="148.27" height="7.19" rx="1.54"></rect><rect class="cls-5" x="50.02" y="74.77" width="399.88" height="218.36"></rect></svg>